<?xml version="1.0" encoding="UTF-8"?>
<svg id="Layer_1" data-name="Layer 1" xmlns="http://www.w3.org/2000/svg" viewBox="0 0 39.7715 32.4082">
  <defs>
    <style>
      .cls-1 {
        fill: #404040;
        stroke-width: 0px;
      }
    </style>
  </defs>
  <path class="cls-1" d="m33.3086,6.2617c-2.3457-.4824-2.9219-1.5625-3.5762-3.416-.543-1.5332-1.9473-2.8457-3.6719-2.8457h-12.3496c-1.7226,0-3.1289,1.3125-3.6699,2.8457-.6543,1.8535-1.2305,2.9336-3.5781,3.416-1.5449.3174-6.4629.9629-6.4629,4.2227v18.8057c0,1.7216,1.3965,3.1181,3.123,3.1181h33.5274c1.7246,0,3.1211-1.3965,3.1211-3.1181V10.4844c0-3.2598-4.918-3.9053-6.4629-4.2227Zm-13.2149,23.4649c-6.0898,0-11.0449-4.9551-11.0449-11.0449,0-6.0928,4.9551-11.044,11.0449-11.044,6.0918,0,11.045,4.9512,11.045,11.044,0,6.0898-4.9532,11.0449-11.045,11.0449Zm17.4082-18.0987c0,.3038-.246.5508-.5527.5508h-4.2383c-.3047,0-.5508-.247-.5508-.5508v-1.6513c0-.3037.2461-.5508.5508-.5508h4.2383c.3067,0,.5527.2471.5527.5508v1.6513Z"/>
  <path class="cls-1" d="m28.5859,18.6817c0-4.6817-3.8086-8.4913-8.4922-8.4913-.4921,0-.9746.042-1.4453.1241,1.2149,1.9199.9883,4.4892-.6836,6.1601-1.6894,1.6914-4.2929,1.9072-6.2168.6504-.0957.5039-.1445,1.0254-.1445,1.5567,0,4.6835,3.8086,8.4941,8.4902,8.4941.7442,0,1.4649-.0986,2.1504-.2783-1.0136-1.7198-.7832-3.9717.6914-5.4502,1.4649-1.4629,3.6856-1.7012,5.4024-.7217.1601-.6553.248-1.3408.248-2.0439Zm-7.0215,1.3964c-.6289.625-1.6484.625-2.2753,0-.627-.6308-.627-1.6504,0-2.2802.6269-.626,1.6464-.626,2.2753,0,.627.6298.627,1.6494,0,2.2802Z"/>
</svg>