<?xml version="1.0" encoding="UTF-8"?>
<svg id="Layer_1" data-name="Layer 1" xmlns="http://www.w3.org/2000/svg" viewBox="0 0 39.7715 26.9384">
  <defs>
    <style>
      .cls-1 {
        fill: #404040;
        stroke-width: 0px;
      }
    </style>
  </defs>
  <path class="cls-1" d="m22.8779,7.4902v-.7607c-.1025-.0049-.205-.0118-.3086-.0118-1.2832,0-2.4863.3711-3.5195,1.0039.3145-.1494.665-.2314,1.0274-.2314h2.8007Z"/>
  <path class="cls-1" d="m37.3945,12.1552l-2.1455,2.1465c.9248,1.0215,1.4942,2.3692,1.4942,3.8526,0,3.1738-2.584,5.7568-5.7578,5.7568H8.7842c-3.1738,0-5.7549-2.583-5.7549-5.7568,0-3.1739,2.5811-5.7569,5.7549-5.7569,1.6514,0,3.2265.7168,4.3242,1.9658.4102.4708,1.0664.6397,1.6572.4249.5889-.2139.9834-.7657.9942-1.3926.0439-2.1211,1.0791-4.0098,2.6474-5.2364.1914-.1777.4063-.3271.6426-.4375,1.0313-.6328,2.2363-1.0039,3.5195-1.0039.1036,0,.2061.0069.3086.0118v-3.0303c-.1025-.0039-.205-.0108-.3086-.0108-4.3525,0-8.1015,2.9004-9.375,6.8731-1.3271-.7744-2.8457-1.1934-4.4101-1.1934C3.9424,9.3681,0,13.3095,0,18.1543c0,4.8427,3.9424,8.7841,8.7842,8.7841h22.2012c4.8437,0,8.7861-3.9414,8.7861-8.7841,0-2.3194-.9053-4.4268-2.377-5.9991Z"/>
  <polygon class="cls-1" points="25.3008 9.914 20.0791 9.914 28.1445 17.9795 36.208 9.914 30.9854 9.914 30.9854 0 25.3008 0 25.3008 9.914"/>
</svg>