<?xml version="1.0" encoding="UTF-8"?>
<svg id="Layer_1" data-name="Layer 1" xmlns="http://www.w3.org/2000/svg" viewBox="0 0 39.7715 39.1406">
  <defs>
    <style>
      .cls-1 {
        fill: #404040;
        stroke-width: 0px;
      }
    </style>
  </defs>
  <path class="cls-1" d="m27.1895,11.8125c1.3105,1.5273,3.2539,2.498,5.4238,2.498,3.9531,0,7.1582-3.2031,7.1582-7.1543,0-3.9551-3.2051-7.1562-7.1582-7.1562-3.9512,0-7.1543,3.2011-7.1543,7.1562,0,.4981.0508.9844.1484,1.4551l-10.8242,5.3262c.709.9492,1.25,2.0312,1.5781,3.2031l10.8282-5.3281Z"/>
  <g>
    <path class="cls-1" d="m14.1953,20.9355c.0703-.4082.1172-.8281.1172-1.2578,0-.4941-.0527-.9727-.1465-1.4395-.2558-1.2109-.8086-2.3086-1.58-3.2207l-.0079.0039c-1.3105-1.5293-3.25-2.5-5.4238-2.5-3.9531,0-7.1543,3.2051-7.1543,7.1563,0,3.9531,3.2012,7.1562,7.1543,7.1562,2.2442,0,4.2442-1.0332,5.5586-2.6503l10.6895,5.2617c.3261-1.1739.8652-2.2559,1.5761-3.2051l-10.7832-5.3047Z"/>
    <path class="cls-1" d="m25.6074,30.5273c-.0976.4707-.1484.959-.1484,1.459,0,3.9492,3.2031,7.1543,7.1543,7.1543,3.9531,0,7.1582-3.2051,7.1582-7.1543,0-3.9531-3.2051-7.1582-7.1582-7.1582-2.1699,0-4.1133.9726-5.4238,2.498l-.0137-.0058c-.7656.9082-1.3164,2.0019-1.5703,3.207h.0019Z"/>
  </g>
</svg>