<?xml version="1.0" encoding="UTF-8"?>
<svg id="Layer_1" data-name="Layer 1" xmlns="http://www.w3.org/2000/svg" viewBox="0 0 33.073029 39.771056">
  <defs>
    <style>
      .cls-1 {
        fill: #404040;
        stroke-width: 0px;
      }
    </style>
  </defs>
  <path class="cls-1" d="m27.089261,13.296456c-1.7422-1.6777-5.9883-4.209-6.3887-5.5136-.0429-.1192-.0761-.2325-.1093-.3418.3769-.0372.664-.2696.664-.5508,0-.3067-.3476-.5586-.7754-.5586h-.0429c.1015-1.2051,1.248-1.8613,2.3828-5.6953-4.5176-1.3887-4.4278-.3125-7.8672,1.3847-2.5527.5371-2.3731-2.9492-5.5918-1.3398,1.6367,3.4922,2.9805,4.4277,3.2812,5.6601-.373.0411-.6601.2676-.6601.5489,0,.2812.2871.5117.6601.5508-.0097.0566-.0175.1093-.0332.1699-.3496,1.3652-4.7539,3.8867-6.623,5.6855-4.0996,3.9473-12.3457,25.7051,2.6191,26.2285,7.0391.2461,7.9336.2461,7.9336.2461,0,0,.8946,0,7.9297-.2461,14.9629-.5234,6.7207-22.2812,2.6211-26.2285Zm-2.0859,6.2266c-.2949.5469-1.0059.6055-1.5977.0996-1.168-.9492-2.6308-1.5645-4.1621-1.7051-2.1465-.123-4.1562.6445-5.7012,2.0449-.582.5684-1.0761,1.2227-1.4746,1.9375l3.5606-.1816c.8418.002,1.5312.6738,1.541,1.5078.0078.8477-.6817,1.543-1.541,1.543h-4.5117c-.0586.3926-.0957.7949-.0957,1.2031.0156.3828.0664.7481.1289,1.1094l4.4785.1914c.8457-.0059,1.5156.6445,1.498,1.4355-.0195.7578-.6894,1.3711-1.498,1.375l-3.4746-.2734c.4062.6836.9082,1.2988,1.4843,1.8223,1.4746,1.2441,3.3809,1.9218,5.4375,1.8007,1.4805-.1406,2.9161-.7187,4.0879-1.6113h0c.5977-.4765,1.3145-.4531,1.5996.0488.2871.4922.0586,1.25-.5117,1.6934-1.5566,1.1563-3.4297,1.8867-5.3926,2.0664-4.1562.043-7.8828-2.3906-9.6191-6.0547l-3.4219-.2715c-.5371-.0644-1.0156-.6425-1.0683-1.3027-.043-.6699.3476-1.1914.8789-1.1602l2.7578.1231c-.0664-.3516-.1172-.6992-.1485-1.0664.0176-.3809.0508-.7559.1036-1.1289h-2.7657c-.5273,0-.9433-.5567-.9257-1.2383.0234-.6816.4726-1.2617,1.0019-1.2988l3.4512-.1797c1.668-3.9336,5.5312-6.6094,9.914-6.5606,2.0235.2051,3.9297.9922,5.4903,2.2266.5644.4687.7851,1.2734.4961,1.8047Z"/>
</svg>