<?xml version="1.0" encoding="UTF-8"?>
<svg id="Layer_1" data-name="Layer 1" xmlns="http://www.w3.org/2000/svg" viewBox="0 0 20.933779 36.021976">
  <defs>
    <style>
      .cls-1 {
        fill: #404040;
        stroke-width: 0px;
      }
    </style>
  </defs>
  <path class="cls-1" d="m19.333177,15.859848c-.9981-1.3027-3.332-3.9629-3.0899-11.5371C16.421077-1.147952,11.816577.129448,11.816577.129448c0,0-5.8955.5527-2.3877,10.7793.6982,2.039,11.5049,4.0214,6.0342,9.9043-1.501,1.6191,1.8134,1.5332,1.7177,3.789-.0605,1.3633-2.2509,1.6074-2.2148,3.2637.0176.7988,1.3291,1.3711,1.1074,2.3867-.166.752-.9746,1.2324-1.5234,2.1582-.6211,1.0469.918,2.0957-1.1563,3.6113,0,.002,1.6846-.1054,2.8526-.3457,0,0,3.6826-1.3379,3.4951-7.1679-.1152-3.6739,1.1943-5.4258,1.1924-7.2832-.003-2.8008-.7432-4.2422-1.6006-5.3653Z"/>
  <g>
    <path class="cls-1" d="m2.505077,19.125548s13.4902,2.7949,13.2168-1.2227c0,0-1.9747-6.4687-13.2168-2.9766,0,.0039-3.0176,3.0352,0,4.1993Z"/>
    <path class="cls-1" d="m1.444477,20.627448s-3.2324,3.291-.0264,4.2344c0,0,14.3331,2.2598,14.0401-.9902,0-.002-1.834-3.9922-14.0137-3.2442Z"/>
    <path class="cls-1" d="m2.141777,26.059148s-2.8106,3.291-.0244,4.2324c0,0,12.455,2.2597,12.2021-.9903,0,0-1.5937-3.9921-12.1777-3.2421Z"/>
    <path class="cls-1" d="m3.355577,31.537648s-2.3271,2.7246-.0244,3.5039c0,0,10.3203,1.873,10.1094-.8184.002.002-1.3203-3.3066-10.085-2.6855Z"/>
  </g>
</svg>