<?xml version="1.0" encoding="UTF-8"?>
<svg id="Layer_1" data-name="Layer 1" xmlns="http://www.w3.org/2000/svg" viewBox="0 0 42.666 43.1387">
  <defs>
    <style>
      .cls-1 {
        fill: #404040;
        stroke-width: 0px;
      }
    </style>
  </defs>
  <path class="cls-1" d="m42.666,2.8731l-3.8964-2.8731-3.9629,5.377H5.6485C2.5332,5.377,0,7.9082,0,11.0254v26.4649c0,3.1152,2.5332,5.6484,5.6485,5.6484h26.4648c3.1152,0,5.6484-2.5332,5.6484-5.6484V9.5157l4.9043-6.6426Zm-9.7461,34.6172c0,.4492-.3593.8066-.8066.8066H5.6485c-.4493,0-.8086-.3574-.8086-.8066V11.0254c0-.4492.3593-.8105.8086-.8105h25.5839l-11.0136,14.9277-8.918-10.2246-3.6484,3.1836,12.8828,14.7617,12.3847-16.7851v21.4121Z"/>
</svg>