<?xml version="1.0" encoding="UTF-8"?>
<svg id="Layer_1" data-name="Layer 1" xmlns="http://www.w3.org/2000/svg" viewBox="0 0 35.999927 35.928381">
  <defs>
    <style>
      .cls-1 {
        fill: #404040;
        stroke-width: 0px;
      }
    </style>
  </defs>
  <path class="cls-1" d="m18.003219,27.226115c-5.141878,0-9.32218-4.185592-9.32218-9.324825,0-5.137945,4.180302-9.318247,9.32218-9.318247,5.137945,0,9.32218,4.180302,9.32218,9.318247,0,5.139233-4.184235,9.324825-9.32218,9.324825Zm0-15.363446c-3.329878,0-6.041266,2.709964-6.041266,6.038621,0,3.327233,2.707387,6.035908,6.041266,6.035908,3.329946,0,6.039977-2.708675,6.039977-6.035908,0-3.328657-2.712676-6.038621-6.039977-6.038621Z"/>
  <path class="cls-1" d="m18.003219,5.95914c-.905966,0-1.64239-.735135-1.64239-1.639813V1.64239c0-.907255.736424-1.64239,1.64239-1.64239.903389,0,1.641169.735135,1.641169,1.64239v2.676937c0,.904678-.73778,1.639813-1.641169,1.639813Z"/>
  <path class="cls-1" d="m34.35747,19.54368h-2.671647c-.905966,0-1.641101-.735135-1.641101-1.64239,0-.906034.735135-1.641169,1.641101-1.641169h2.671647c.905966,0,1.642458.735135,1.642458,1.641169,0,.907255-.736492,1.64239-1.642458,1.64239Z"/>
  <path class="cls-1" d="m18.003219,35.928381c-.905966,0-1.64239-.735135-1.64239-1.641101v-2.676937c0-.905966.736424-1.641101,1.64239-1.641101.903389,0,1.641169.735135,1.641169,1.641101v2.676937c0,.905966-.73778,1.641101-1.641169,1.641101Z"/>
  <path class="cls-1" d="m4.315325,19.54368H1.641101c-.905966,0-1.641101-.735135-1.641101-1.64239,0-.906034.735135-1.641169,1.641101-1.641169h2.674224c.907322,0,1.643814.735135,1.643814,1.641169,0,.907255-.736492,1.64239-1.643814,1.64239Z"/>
  <path class="cls-1" d="m27.616808,9.926157c-.419854,0-.842422-.157606-1.161636-.478177-.641073-.64243-.641073-1.680842,0-2.321915l1.894126-1.894126c.639785-.639717,1.678197-.639717,2.31927,0,.641073.64243.641073,1.680842,0,2.321915l-1.888769,1.894126c-.323215.320571-.740425.478177-1.162992.478177Z"/>
  <path class="cls-1" d="m29.57848,31.103004c-.418566,0-.839777-.157606-1.158991-.483399l-1.890125-1.890193c-.643718-.639717-.643718-1.679486,0-2.320559.638428-.64243,1.678197-.64243,2.320627,0l1.891414,1.888769c.639785.641073.639785,1.679554,0,2.321983-.320503.320503-.74307.483399-1.162924.483399Z"/>
  <path class="cls-1" d="m6.426669,31.118941c-.421211,0-.841065-.157606-1.161636-.482178-.641073-.641073-.641073-1.679486,0-2.321915l1.890125-1.890125c.639785-.639717,1.679554-.639717,2.320627,0,.643718.64243.643718,1.679554,0,2.323272l-1.886124,1.888769c-.324504.324572-.744426.482178-1.162992.482178Z"/>
  <path class="cls-1" d="m8.335376,9.858612c-.419922,0-.841133-.160319-1.158991-.483467l-1.891481-1.891481c-.642362-.639717-.642362-1.678197,0-2.31927.641073-.641073,1.679554-.641073,2.321983,0l1.888769,1.888837c.641073.642362.641073,1.679486,0,2.321915-.319214.323148-.741714.483467-1.160279.483467Z"/>
</svg>