<?xml version="1.0" encoding="UTF-8"?>
<svg id="Layer_1" data-name="Layer 1" xmlns="http://www.w3.org/2000/svg" viewBox="0 0 38.4415 39.7715">
  <defs>
    <style>
      .cls-1 {
        fill: #404040;
        stroke-width: 0px;
      }
    </style>
  </defs>
  <path class="cls-1" d="m35.7715,7.6729c.0801.2666.1221.5498.1221.8408v25.9668c0,1.6982-1.3799,3.0791-3.083,3.0791H5.0821c-.1397,0-.2754-.0088-.4131-.0274.3691,1.294,1.5537,2.2393,2.9648,2.2393h27.7295c1.6983,0,3.0782-1.3799,3.0782-3.082V10.7246c-.002-1.5625-1.1602-2.8496-2.67-3.0517Z"/>
  <path class="cls-1" d="m21.5479,8.1436h.7725c.8515,0,1.54-.9463,1.54-2.1133v-3.919c0-1.166-.6885-2.1113-1.54-2.1113h-.7725c-.8506,0-1.5381.9434-1.5381,2.1113v3.919c-.0019,1.167.6875,2.1133,1.5381,2.1133Z"/>
  <path class="cls-1" d="m11.418,8.1436h.7705c.8506,0,1.5401-.9463,1.5401-2.1133v-3.919c0-1.166-.6895-2.1113-1.5401-2.1113h-.7705c-.8515,0-1.54.9434-1.54,2.1113v3.919c0,1.167.6904,2.1133,1.54,2.1133Z"/>
  <path class="cls-1" d="m33.8877,33.1211V7.1543c0-1.7012-1.3808-3.0791-3.083-3.0791h-4.9453v2.8584c0,1.6992-1.3828,3.0781-3.082,3.0781h-1.5381c-1.7002,0-3.081-1.3789-3.081-3.0781v-2.8584h-2.4297v2.8584c0,1.6992-1.3789,3.0781-3.0801,3.0781h-1.541c-1.7022,0-3.0801-1.3789-3.0801-3.0781v-2.8584H3.0801c-1.7002,0-3.0801,1.3779-3.0801,3.0791v25.9668c0,1.7012,1.3799,3.0801,3.0801,3.0801h27.7266c1.6982.0019,3.081-1.3789,3.081-3.0801Zm-31.4912.1856V12.8731h29.0879v20.4336H2.3965Z"/>
  <path class="cls-1" d="m15.4083,22.8418c-.2833-.1777-.6944-.3301-1.2286-.4609.6631-.3662,1.1582-.791,1.4864-1.2783.3261-.4834.4912-1.0303.4912-1.6299,0-1.0254-.4014-1.8701-1.208-2.5469-.8106-.6758-2.1192-1.0117-3.9297-1.0117-1.5781,0-2.7988.3047-3.6631.9267-.8604.6172-1.4424,1.5118-1.7461,2.6729l3.6455.6543c.1006-.6885.2959-1.1719.5772-1.4453.2841-.2754.6533-.4121,1.1103-.4121.4395,0,.7881.1269,1.0391.3789.2529.2509.3808.5908.3808,1.0117,0,.4424-.1699.8262-.5058,1.1484-.3399.3184-.7578.4805-1.2647.4805-.1181,0-.2861-.0147-.501-.043l-.1982,2.7539c.5303-.1562.9463-.2334,1.252-.2334.5654,0,1.0166.1807,1.3466.5323.334.3535.4981.8554.4981,1.498,0,.6309-.1719,1.1348-.5156,1.5137-.3457.3828-.7745.5683-1.294.5683-.4902,0-.8945-.1504-1.2119-.4502-.3213-.2998-.5566-.8369-.707-1.6162l-3.8555.5118c.25.8652.6172,1.58,1.0869,2.1542.4658.5723,1.0703,1.0059,1.7959,1.3008.7305.2969,1.7266.4473,2.9873.4473,1.294,0,2.3408-.1992,3.1358-.6035.7968-.3985,1.4043-.9707,1.8242-1.7149.4238-.7363.6367-1.5136.6367-2.3242,0-.6426-.1309-1.2002-.3828-1.6601-.2598-.4639-.6201-.8379-1.082-1.1231Z"/>
  <path class="cls-1" d="m22.293,18.1104c-.7207.5927-1.7441,1.0986-3.0576,1.5224v3.1631c.8896-.2715,1.6289-.5556,2.2197-.8506.5899-.2949,1.2022-.6836,1.835-1.164v9.25h3.8994v-14.1172h-3.1914c-.4121.8691-.9785,1.6015-1.7051,2.1963Z"/>
</svg>