<?xml version="1.0" encoding="UTF-8"?>
<svg id="Layer_1" data-name="Layer 1" xmlns="http://www.w3.org/2000/svg" viewBox="0 0 39.7715 29.9902">
  <defs>
    <style>
      .cls-1 {
        fill: #404040;
        stroke-width: 0px;
      }
    </style>
  </defs>
  <g>
    <path class="cls-1" d="m39.7715,17.7617c0-3.5713-3.3593-6.5713-7.916-7.4414.1416.6016.2168,1.2158.2168,1.8457,0,4.6641-5.0176,8.7471-10.9082,10.3389,1.7354,1.4365,4.1348,2.4834,6.625,2.8701,0,0,.6348,4.6152,7.8457,4.6152-3.2314-1.4414-3.334-4.8828-3.334-4.8828,4.3301-.9687,7.4707-3.8926,7.4707-7.3457Z"/>
    <path class="cls-1" d="m15.0723,0C6.75,0,0,4.8926,0,10.9219c0,4.9062,4.4629,9.0546,10.6036,10.4335,0,0-.1456,4.8848-4.7334,6.9336,10.2412,0,11.1416-6.5546,11.1416-6.5546,6.7929-1.0557,13.1347-5.5704,13.1347-10.8125-.0019-6.0332-6.75-10.9219-15.0742-10.9219Zm-4.9941,13.1738c-.2305.3555-.5567.6221-.9746.8066-.419.1836-.9405.2774-1.5782.2774-1.1152,0-1.8857-.2178-2.3164-.6484-.4277-.4307-.6699-.9747-.7304-1.6329l1.9287-.125c.04.3145.1259.5528.2558.7168.2061.2666.503.3975.8955.3975.2871,0,.5118-.0615.6661-.2021.1562-.1348.2363-.295.2363-.4727,0-.1699-.0762-.3184-.2266-.4551-.1484-.1328-.4931-.2597-1.0351-.3789-.8897-.1973-1.5235-.4668-1.9014-.7949-.3818-.3301-.5752-.752-.5752-1.2676,0-.3369.0996-.6543.2949-.9521.1934-.2998.4863-.5342.8789-.708.3965-.1709.9326-.2569,1.6133-.2569.8399,0,1.4785.1553,1.918.4678.4394.3125.7011.8086.7832,1.4902l-1.9102.1094c-.0508-.2939-.1562-.5117-.3174-.6445-.1621-.1367-.3857-.2012-.6728-.2012-.2344,0-.4121.0498-.5303.1504-.1221.0996-.1826.2207-.1826.3613,0,.1065.0488.1992.1494.2813.0947.0879.3213.1699.6787.2441.8877.1914,1.5205.3818,1.9024.5772.3857.1943.6631.4365.8388.7255.1748.2891.2598.6133.2598.9727,0,.4199-.1152.8096-.3486,1.1621Zm8.7226.9707h-1.6601v-5l-1.2813,5h-1.5l-1.2754-5v5h-1.6601v-6.5586h2.6631l1.0273,3.9922,1.0205-3.9922h2.6641v6.5586h.0019Zm6.541-.9707c-.2363.3555-.5605.6221-.9775.8066-.4189.1836-.9424.2774-1.5752.2774-1.1211,0-1.8906-.2178-2.3223-.6484-.4277-.4307-.6718-.9747-.7275-1.6329l1.9268-.125c.0419.3145.124.5528.2558.7168.208.2666.5078.3975.8955.3975.2862,0,.5108-.0615.668-.2021.1553-.1348.2334-.295.2334-.4727,0-.1699-.0752-.3184-.2246-.4551-.1485-.1328-.4922-.2597-1.0362-.3789-.8876-.1973-1.5244-.4668-1.9023-.7949-.3838-.3301-.5703-.752-.5703-1.2676,0-.3369.0957-.6543.292-.9521.1914-.2998.4853-.5342.8808-.708.3907-.1709.9278-.2569,1.6133-.2569.836,0,1.4756.1553,1.9151.4678.4394.3125.7011.8086.7851,1.4902l-1.9082.1094c-.0537-.2939-.1572-.5117-.3193-.6445-.1621-.1367-.3867-.2012-.6699-.2012-.2383,0-.418.0498-.5352.1504-.1201.0996-.1797.2207-.1797.3613,0,.1065.0508.1992.1485.2813.0927.0879.3212.1699.6816.2441.8828.1914,1.5176.3818,1.8984.5772.3828.1943.6621.4365.835.7255.1758.2891.2646.6133.2646.9727,0,.4199-.1152.8096-.3457,1.1621Z"/>
  </g>
  <ellipse class="cls-1" cx="14.036256" cy="11.232784" rx="12.123505" ry="8.364689"/>
</svg>