<?xml version="1.0" encoding="UTF-8"?>
<svg id="Layer_1" data-name="Layer 1" xmlns="http://www.w3.org/2000/svg" viewBox="0 0 40.541 39.1953">
  <defs>
    <style>
      .cls-1 {
        fill: #404040;
        stroke-width: 0px;
      }
    </style>
  </defs>
  <path class="cls-1" d="m31.5723,19.4395H2.7754c-1.5352,0-2.7754,1.2422-2.7754,2.7754v8.3496c0,1.5351,1.2402,2.7773,2.7754,2.7773h28.7969c1.5332,0,2.7754-1.2422,2.7754-2.7773v-8.3496c0-1.5332-1.2422-2.7754-2.7754-2.7754Zm-21.1426,7.6504c0,1.0449-.0918,1.8379-.2773,2.3828-.1836.543-.5567,1.0059-1.1153,1.3848-.5586.375-1.2773.5644-2.1484.5644-.9219,0-1.6406-.123-2.1465-.373-.5078-.25-.9004-.6153-1.1758-1.0938-.2773-.4805-.4394-1.0742-.4883-1.7812l2.7012-.3672c.0039.4023.0371.7011.1035.8965.0664.1972.1797.3535.336.4746.1093.0781.2656.1191.4648.1191.3145,0,.5469-.1172.6934-.3535.1484-.2344.2226-.6289.2226-1.1875v-5.6328h2.8301v4.9668h0Zm8.7988.0058c-.5566.5196-1.4023.7793-2.5429.7793h-1.5469v3.3926h-2.8379v-9.1445h4.6973c1.0214,0,1.7871.2441,2.2949.7305.5117.4863.7676,1.1796.7676,2.0781,0,.9219-.2774,1.6445-.8321,2.164Zm11.2715,2.8536c-.8359.5703-1.5742.9609-2.2168,1.164-.6426.2051-1.4043.3086-2.2871.3086-1.084,0-1.9707-.1836-2.6543-.5547-.6816-.3691-1.2129-.9199-1.5898-1.6504-.375-.7324-.5625-1.5742-.5625-2.5195,0-1,.205-1.8672.6152-2.6055.4121-.7382,1.0156-1.2968,1.8105-1.6816.6211-.2949,1.4532-.4414,2.5-.4414,1.0098,0,1.7676.0898,2.2676.2754.502.1816.918.4668,1.2481.8496.33.3848.5781.873.7461,1.4609l-2.7286.4883c-.1113-.3457-.3007-.6094-.5683-.791-.2695-.1836-.6113-.2754-1.0274-.2754-.6191,0-1.1132.2148-1.4804.6445-.3672.4317-.5528,1.1114-.5528,2.043,0,.9902.1875,1.6973.5586,2.1211.3731.4219.8926.6367,1.5567.6367.3144,0,.6172-.0469.9043-.1387.2871-.0937.6152-.2461.9843-.4668v-.8613h-1.8886v-1.9004h4.3652v3.8946h0Z"/>
  <path class="cls-1" d="m15.9434,23.9825h-.8047v2.039h.6933c.543,0,.9258-.0937,1.1465-.2832.2227-.1894.3301-.4336.3301-.7285,0-.2852-.0937-.5293-.2871-.7285-.1914-.1973-.5488-.2988-1.0781-.2988Z"/>
  <path class="cls-1" d="m12.375,0c-2.6777,0-4.8574,2.1778-4.8574,4.8575v5.2734c0,.6758,1.9414.7168,1.9414,0v-5.2734c0-1.6094,1.3086-2.9141,2.916-2.9141h12.5899v8.5996c0,2.6758,2.1777,4.8555,4.8574,4.8555h8.7754v18.9394c0,1.6074-1.3067,2.916-2.9141,2.916H12.1621c-.9414,0-.916,1.9414,0,1.9414h23.5215c2.6777,0,4.8574-2.1796,4.8574-4.8574v-4.7851h0v-15.5332L26.3359,0h-13.9609Zm14.9883,4.2364l8.7558,8.6425h-6.2773c-1.3672,0-2.4785-1.1132-2.4785-2.4785v-6.164Z"/>
</svg>