<?xml version="1.0" encoding="UTF-8"?>
<svg id="Layer_1" data-name="Layer 1" xmlns="http://www.w3.org/2000/svg" viewBox="0 0 39.7715 37.8769">
  <defs>
    <style>
      .cls-1 {
        fill: #404040;
        stroke-width: 0px;
      }
    </style>
  </defs>
  <path class="cls-1" d="m35.9825,0h-17.043c-2.0918,0-3.7891,1.6972-3.7891,3.7871v15.1523c0,2.0918,1.6973,3.7891,3.7891,3.7891h17.043c2.0937,0,3.789-1.6973,3.789-3.7891V3.7871c0-2.0899-1.6953-3.7871-3.789-3.7871Zm-17.043,17.0468l3.5215-5.6503,2.1679,3.4804,5.002-8.0215,6.3516,10.1914h-17.043Z"/>
  <path class="cls-1" d="m11.3633,5.6836h-3.789v20.83c0,2.0879,1.6992,3.7891,3.789,3.7891h18.9375v-3.7891H11.3633V5.6836Z"/>
  <path class="cls-1" d="m3.7872,13.2578H0v20.834c0,2.0879,1.6993,3.7851,3.7872,3.7851h18.9394v-3.7851H3.7872V13.2578Z"/>
</svg>