<?xml version="1.0" encoding="UTF-8"?>
<svg id="Layer_1" data-name="Layer 1" xmlns="http://www.w3.org/2000/svg" viewBox="0 0 35.426225 39.772162">
  <defs>
    <style>
      .cls-1 {
        fill: #404040;
        stroke-width: 0px;
      }
    </style>
  </defs>
  <path class="cls-1" d="m11.434125,2.499217l8.414,12.9062L29.311025,3.247217C23.982925-.899283,16.789525-.992983,11.434125,2.499217Z"/>
  <path class="cls-1" d="m29.037625,36.870317l-9.002-12.502-8.8906,12.5801c5.5137,3.8965,12.7031,3.6562,17.8926-.0781Z"/>
  <g>
    <path class="cls-1" d="m29.355925,7.635917l-9.5195,12.2285.0391.0274-.0215.0156,9.1953,12.7695c3.8672-2.8613,6.3769-7.457,6.3769-12.6387,0-5.0429-2.3789-9.5254-6.0703-12.4023Z"/>
    <path class="cls-1" d="m17.705525,17.374217l-6.4179-10.5977c-1.586,1.0078-2.9805,2.293-4.1114,3.7871l10.5293,6.8106Z"/>
    <path class="cls-1" d="m6.777825,28.962117c1.0566,1.5273,2.375,2.8554,3.8926,3.9257l6.9277-10.9335-10.8203,7.0078Z"/>
  </g>
  <path class="cls-1" d="m2.738725,28.768717l12.6661-8.7715L2.990725,10.876117c-4,5.4414-3.8906,12.6367-.252,17.8926Z"/>
</svg>