<?xml version="1.0" encoding="UTF-8"?>
<svg id="Layer_1" data-name="Layer 1" xmlns="http://www.w3.org/2000/svg" viewBox="0 0 34.442306 38.684668">
  <defs>
    <style>
      .cls-1 {
        font-family: Raleway-ExtraBold, Raleway;
        font-size: 21px;
        font-weight: 700;
      }

      .cls-1, .cls-2 {
        fill: #fff;
      }

      .cls-2 {
        stroke-width: 0px;
      }
    </style>
  </defs>
  <path class="cls-2" d="m26.502368,4.543453C23.731549,2.25735,20.393411.763532,16.858738.224629h0c-2.513142-.38404-5.042977-.268181-7.461597.290359l-.136902.962841-.554037,4.009004c2.357973-.841131,4.921977-1.111372,7.46315-.722093l.346634-2.270242-.346634,2.270242c2.716018.411634,5.279211,1.560094,7.412585,3.318831,5.200179,4.287304,6.827656,11.310105,4.545092,17.27889-.333827.873895-.75464,1.720797-1.259112,2.534561l-3.778668-3.115177-1.927151,13.902823,13.280208-4.542961-3.991797-3.291071c.520733-.787802.979655-1.605119,1.374414-2.43776,3.808033-8.038422,1.848593-17.960757-5.322555-23.869423Z"/>
  <text class="cls-1" transform="translate(.000239 23.424558)"><tspan x="0" y="0">30</tspan></text>
</svg>