<?xml version="1.0" encoding="UTF-8"?>
<svg id="Layer_1" data-name="Layer 1" xmlns="http://www.w3.org/2000/svg" viewBox="0 0 39.7715 39.7696">
  <defs>
    <style>
      .cls-1 {
        fill: #404040;
        stroke-width: 0px;
      }
    </style>
  </defs>
  <path class="cls-1" d="m19.8867,0C8.9063,0,0,8.9024,0,19.8848s8.9024,19.8848,19.8867,19.8848c10.9825,0,19.8848-8.9024,19.8848-19.8848S30.8692,0,19.8867,0Zm0,36.0742c-8.9414,0-16.1894-7.25-16.1894-16.1914C3.6973,10.9453,10.9414,3.6934,19.8867,3.6934c8.9395,0,16.1875,7.25,16.1875,16.1894,0,8.9414-7.248,16.1914-16.1875,16.1914Z"/>
  <path class="cls-1" d="m22.7969,20.8106c.0898-.2949.1426-.6016.1426-.9239,0-1.164-.6465-2.1699-1.5977-2.6835V6.6641c0-1.0215-.6543-1.8457-1.4629-1.8457-.8047,0-1.459.8262-1.459,1.8457v10.543c-.9433.5175-1.5839,1.5214-1.5839,2.6777,0,1.6816,1.3632,3.0527,3.0488,3.0527.3398,0,.666-.0566.9726-.1601l4.5684,4.5722c.4629.459,1.2734.3946,1.8125-.1445.5391-.5371.6035-1.3496.1445-1.8125l-4.5859-4.582Z"/>
  <path class="cls-1" d="m33.3848,18.4317c-.8047,0-1.4551.6504-1.4551,1.4511,0,.8028.6523,1.4551,1.4551,1.4551.7988,0,1.4531-.6543,1.4531-1.4551.002-.8007-.6523-1.4511-1.4531-1.4511Z"/>
  <path class="cls-1" d="m19.8867,31.7657c-.8027,0-1.4511.6503-1.4511,1.4531,0,.8008.6504,1.4531,1.4511,1.4531.8047,0,1.4493-.6543,1.4493-1.4531.0019-.8028-.6446-1.4531-1.4493-1.4531Z"/>
  <path class="cls-1" d="m6.8281,18.4317c-.8027,0-1.4531.6504-1.4531,1.4511,0,.8028.6524,1.4551,1.4531,1.4551.7989,0,1.4493-.6543,1.4493-1.4551,0-.8007-.6524-1.4511-1.4493-1.4511Z"/>
</svg>